<?xml version="1.0" encoding="UTF-8"?>
<svg width="1025px" height="1024px" viewBox="0 0 1025 1024" version="1.1" xmlns="http://www.w3.org/2000/svg" xmlns:xlink="http://www.w3.org/1999/xlink">
    <title>turnAroundIcon</title>
    <g id="Page-1" stroke="none" stroke-width="1" fill="none" fill-rule="evenodd">
        <path d="M520.381362,0 C469.161644,0 427.502603,42.1907555 427.502603,94.0692437 C427.518373,146.270759 469.177792,188.138487 520.381362,188.138487 C571.920005,188.138487 613.690063,146.270759 613.690063,94.0692437 C613.690063,42.1907555 571.920005,0 520.381362,0 Z M527.840515,200.760423 L527.840515,200.773371 L512.540201,200.805742 L528.206874,200.792794 C528.084664,200.779845 527.958507,200.776608 527.840232,200.76366 L527.840515,200.760423 Z M512.368801,200.790448 L487.872986,200.857535 L487.872986,200.857535 C456.944351,200.857535 422.196692,207.580967 396.472787,218.894859 L396.575287,218.868962 C340.837132,244.163146 303.877186,266.982026 280.692568,298.630626 C253.198429,336.154656 250.663179,378.648356 250.876132,437.0803 C250.643529,453.783428 267.098905,467.414593 287.44146,467.363214 C307.784014,467.314658 324.145055,453.602773 323.78677,436.898817 C323.58177,380.401869 327.571478,350.772793 343.167503,329.491967 C355.081765,313.228875 377.178405,297.470456 418.675965,277.50808 L385.164284,409.052562 C385.162506,409.059542 385.160729,409.066522 385.158952,409.073503 L382.33883,420.153425 L382.33883,420.153425 C378.061302,436.951024 380.915578,449.646595 392.336717,464.181035 L455.727047,544.855918 L473.668583,567.687228 L618.627954,752.170777 L618.627954,752.170777 C634.027175,772.409108 666.615027,778.38481 691.038001,765.446433 C715.456939,752.51137 722.262349,725.665872 706.153621,705.802939 L531.104459,483.031203 C518.824931,467.403983 514.842118,446.811126 520.409225,427.732233 L529.279572,397.332888 L542.265663,352.832923 L542.265663,352.832923 C579.494071,408.345384 665.939835,423.365437 725.092301,434.899181 C744.824256,438.961681 764.784303,428.981819 769.448072,412.725024 C774.111842,396.46823 761.66974,380.221214 741.803554,376.625517 C674.82633,363.677195 640.655965,353.612723 619.057897,336.216808 C607.770383,327.123564 596.787665,314.456997 588.252391,294.953717 C579.717117,275.453751 575.719455,253.911058 568.122789,234.647269 L568.063692,234.470299 C568.061289,234.463102 568.053507,234.459217 568.046311,234.46162 C568.043834,234.462447 568.041644,234.463963 568.039998,234.465991 L568.039998,234.465991 L568.039998,234.465991 C560.261666,215.140879 537.68361,200.803668 512.396713,200.790409 C512.387409,200.790409 512.378105,200.790422 512.368801,200.790448 Z M352.101669,538.763382 L342.782652,575.341853 C338.122841,593.632274 328.381785,610.230474 314.685571,623.217662 L232.665569,700.991654 L232.665569,700.991654 C213.33227,718.801915 215.485012,746.16203 237.451661,761.7804 C259.418309,777.39877 292.704364,775.233396 311.406878,756.976552 L423.474612,650.713298 C429.423668,645.071062 433.472499,638.247275 435.215281,630.921633 L436.690762,624.722165 C443.753693,595.046135 436.884975,563.769212 418.037378,539.783388 L407.95973,526.958374 C397.101133,513.139508 377.096096,510.739737 363.27723,521.598334 C357.76211,525.932009 353.833316,531.96642 352.101669,538.763382 Z M664.369997,453.915966 L664.37423,453.915966 C656.314969,453.915966 648.581872,457.415247 642.884314,463.635418 C637.186756,469.855588 633.982773,478.299158 633.982773,487.097403 C633.982773,495.895647 637.186972,504.334248 642.884314,510.554655 C648.581656,516.774826 656.315511,520.273065 664.37423,520.273065 L804.158373,520.273065 C893.068673,520.273065 963.696508,597.383401 963.696508,694.451566 C963.696508,791.520914 893.06759,868.630066 804.158373,868.630066 L112.866187,868.630066 L163.841888,813.776201 C175.059294,801.964289 175.388708,782.115772 164.569936,769.870158 C153.039369,758.090662 135.325792,758.293907 124.350028,769.0753 L9.8678985,887.018148 C-4.0704227,901.381397 -2.28898757,926.959835 13.922939,938.133617 C53.1231806,965.31152 92.5433926,992.104937 131.710043,1019.34672 C142.647881,1027.60953 157.953703,1024.56415 165.521551,1012.62282 C173.182914,999.539613 168.36177,982.964085 159.015737,975.449435 L109.991596,934.98603 L804.166153,934.98603 C925.69167,934.98603 1024.4833,827.135667 1024.4833,694.450998 C1024.4833,561.773427 925.698172,453.915966 804.166153,453.915966 L664.369997,453.915966 Z" id="Shape" fill="#000000" fill-rule="nonzero"></path>
    </g>
</svg>